<?xml version="1.0" standalone="no"?>
<!DOCTYPE svg PUBLIC "-//W3C//DTD SVG 20010904//EN"
 "http://www.w3.org/TR/2001/REC-SVG-20010904/DTD/svg10.dtd">
<svg version="1.0" xmlns="http://www.w3.org/2000/svg"
 width="242.000000pt" height="280.000000pt" viewBox="0 0 242.000000 280.000000"
 preserveAspectRatio="xMidYMid meet">

<g transform="translate(0.000000,280.000000) scale(0.100000,-0.100000)"
fill="#000000" stroke="none">
<path d="M344 2603 c-19 -21 -45 -49 -59 -63 -13 -14 -31 -42 -41 -62 -10 -21
-21 -38 -25 -38 -5 0 -14 -19 -20 -42 -7 -24 -21 -52 -31 -64 -10 -11 -23 -47
-29 -79 -6 -33 -18 -73 -26 -89 -9 -16 -13 -41 -9 -57 3 -15 -1 -41 -10 -58
-8 -16 -15 -54 -14 -83 0 -29 0 -64 0 -78 -2 -55 10 -181 17 -193 4 -6 11 -37
15 -67 12 -96 24 -148 40 -172 8 -12 18 -39 22 -59 3 -20 19 -48 37 -65 17
-16 37 -43 44 -61 9 -20 28 -39 54 -53 23 -11 41 -27 41 -35 0 -8 18 -26 40
-40 22 -14 40 -29 40 -33 0 -5 19 -19 43 -32 23 -12 50 -30 60 -39 20 -17 93
-30 207 -38 74 -4 76 -4 120 31 63 50 65 34 2 -25 -28 -28 -52 -52 -52 -55 0
-2 8 -4 18 -4 13 -1 9 -8 -16 -29 -32 -27 -32 -29 -11 -34 l22 -6 -23 -38
c-13 -23 -18 -39 -11 -41 17 -6 13 -37 -15 -106 -37 -94 -42 -95 -109 -40 -46
37 -62 45 -85 41 -25 -5 -35 2 -95 75 -60 72 -109 108 -145 108 -6 0 0 -19 14
-42 13 -24 27 -54 31 -67 7 -22 5 -23 -18 -17 -14 3 -50 1 -79 -5 -46 -10 -50
-13 -34 -23 44 -25 101 -85 146 -151 64 -95 92 -119 127 -112 22 4 37 -3 77
-40 42 -38 55 -44 79 -39 20 4 40 0 63 -14 18 -12 56 -29 86 -39 32 -11 54
-25 56 -35 4 -21 -30 -88 -70 -140 l-31 -39 29 7 c16 4 47 16 68 26 22 11 42
18 44 15 2 -2 -5 -17 -17 -33 -12 -17 -21 -33 -21 -36 0 -9 45 11 90 39 43 27
48 24 25 -15 -8 -14 -14 -28 -15 -32 0 -11 48 9 82 34 l30 21 -7 -24 c-4 -13
-10 -30 -13 -38 -12 -33 94 23 128 67 l20 27 20 -27 c22 -29 70 -61 108 -73
25 -7 25 -2 4 54 -4 10 4 8 25 -7 35 -25 83 -45 83 -34 -1 4 -7 18 -15 32 -23
39 -18 42 25 15 45 -28 90 -48 90 -39 0 3 -9 19 -21 36 -12 16 -19 31 -17 33
2 3 22 -4 44 -15 21 -10 52 -22 67 -26 l29 -7 -34 44 c-41 55 -72 123 -65 143
3 8 25 20 49 26 24 7 62 22 85 36 29 17 50 22 70 18 24 -5 37 2 79 39 40 37
55 44 77 40 35 -7 63 17 127 112 45 66 102 126 146 151 16 10 12 13 -34 23
-29 6 -65 8 -79 5 -23 -6 -25 -5 -18 17 4 13 18 43 31 67 14 23 20 42 14 42
-36 0 -85 -36 -145 -108 -60 -73 -70 -80 -95 -75 -23 4 -39 -4 -85 -41 -67
-55 -72 -54 -109 40 -28 69 -32 100 -15 106 7 2 2 18 -11 41 l-23 38 22 6 c21
5 21 7 -11 34 -25 21 -29 28 -15 29 9 0 17 2 17 4 0 3 -24 27 -52 55 -63 59
-61 75 2 25 44 -35 46 -35 120 -31 114 8 187 21 207 38 10 9 37 27 61 39 23
13 42 27 42 32 0 4 18 19 40 33 22 14 40 32 40 40 0 8 18 24 41 35 26 14 45
33 54 53 7 18 27 45 44 61 18 17 34 45 37 65 4 20 14 47 22 59 16 24 28 76 40
172 4 30 11 61 15 67 7 12 19 138 17 193 0 14 0 49 0 78 1 29 -6 67 -14 83 -9
17 -13 43 -10 58 4 16 0 41 -9 57 -8 16 -20 56 -26 89 -6 32 -19 68 -29 79
-10 12 -24 40 -31 64 -6 23 -15 42 -20 42 -4 0 -15 17 -25 38 -10 20 -28 48
-41 62 -14 14 -40 42 -59 63 -36 39 -56 47 -56 22 0 -8 6 -14 13 -13 9 2 12
-21 12 -92 -1 -85 -4 -101 -30 -155 -33 -64 -193 -239 -201 -218 -3 7 -28 -5
-68 -33 -35 -24 -69 -44 -75 -44 -19 0 -127 -76 -149 -105 -12 -15 -28 -50
-38 -78 -17 -55 -37 -83 -51 -74 -10 6 -8 100 2 118 5 7 0 18 -10 26 -15 10
-16 16 -7 25 17 17 15 25 -9 31 -17 5 -19 9 -9 26 8 17 8 21 -4 21 -23 0 -26
25 -4 39 20 12 20 13 -10 31 -37 23 -69 114 -49 138 6 8 12 43 12 78 1 59 -6
77 -19 55 -13 -21 -102 -32 -167 -21 -47 8 -72 8 -93 0 -22 -8 -31 -8 -37 1
-5 9 -14 9 -38 -1 -17 -7 -28 -16 -25 -21 3 -5 -2 -9 -10 -9 -9 0 -16 -4 -16
-9 0 -5 -9 -11 -21 -14 -12 -3 -18 -10 -14 -16 10 -17 39 -13 58 9 9 11 24 20
32 20 8 0 15 4 15 9 0 11 -2 11 167 14 104 2 129 -1 121 -10 -8 -10 -6 -13 6
-13 21 0 20 -9 -1 -26 -17 -13 -17 -13 0 -14 20 0 23 -16 3 -23 -12 -5 -10
-17 11 -69 14 -35 32 -71 41 -81 14 -16 14 -19 2 -27 -12 -7 -12 -12 -2 -22
20 -20 13 -32 -8 -13 -11 10 -20 28 -20 39 -1 19 -2 20 -14 4 -10 -14 -15 -15
-26 -5 -10 9 -14 9 -17 -1 -4 -10 -8 -10 -19 -1 -11 9 -17 9 -28 0 -10 -9 -16
-9 -21 -1 -4 7 -11 8 -18 2 -7 -5 -28 -8 -47 -7 -24 2 -41 -4 -54 -17 -22 -24
-32 -17 -15 10 30 47 -13 65 -91 37 -50 -18 -60 -18 -60 -5 0 6 7 10 15 10 8
0 46 16 83 35 43 22 59 35 45 35 -12 0 -25 -4 -28 -10 -3 -5 -15 -10 -27 -10
-16 0 -18 3 -9 14 10 12 8 16 -11 22 -26 8 -80 7 -112 -1 -20 -6 -20 -5 3 14
13 12 34 21 47 21 24 0 33 23 14 35 -5 3 -10 -1 -10 -9 0 -10 -9 -16 -22 -16
-29 0 -42 -9 -57 -37 -22 -43 -15 -52 28 -31 40 20 96 21 96 3 0 -5 -15 -11
-33 -13 -34 -3 -35 -22 -1 -22 11 0 17 -5 14 -10 -4 -6 -21 -8 -41 -4 -26 5
-34 3 -34 -8 0 -39 49 -48 121 -23 27 10 46 12 52 6 15 -15 0 -41 -24 -41 -19
0 -20 -2 -8 -16 11 -14 10 -18 -6 -30 -10 -8 -25 -14 -32 -14 -11 0 -11 -4 -1
-21 11 -18 11 -23 0 -26 -10 -4 -10 -8 -1 -19 9 -11 7 -14 -10 -14 -19 0 -21
-4 -15 -22 10 -30 6 -90 -6 -102 -15 -15 -35 11 -54 71 -10 28 -26 63 -38 78
-22 29 -130 105 -149 105 -6 0 -40 20 -75 44 -40 28 -65 40 -68 33 -8 -21
-168 154 -201 218 -26 54 -29 70 -30 155 0 71 3 94 13 93 6 -2 12 4 12 12 0
25 -20 17 -56 -22z m13 -80 c4 -129 48 -216 172 -338 96 -94 97 -130 2 -60
-128 94 -199 211 -208 343 -5 74 5 122 25 122 4 0 8 -30 9 -67z m1774 45 c7
-14 10 -49 6 -100 -9 -132 -80 -249 -208 -343 -95 -70 -94 -34 2 60 124 122
168 209 172 338 2 70 9 81 28 45z m-1848 -143 c11 -106 95 -226 250 -352 26
-22 35 -43 19 -43 -22 0 -132 83 -183 136 -86 91 -134 212 -115 288 10 42 23
30 29 -29z m1923 29 c19 -76 -29 -197 -115 -288 -51 -53 -161 -136 -183 -136
-16 0 -7 21 19 43 155 126 239 246 250 352 6 59 19 71 29 29z m-1899 -56 c-3
-8 -6 -5 -6 6 -1 11 2 17 5 13 3 -3 4 -12 1 -19z m1850 0 c-3 -8 -6 -5 -6 6
-1 11 2 17 5 13 3 -3 4 -12 1 -19z m-1885 -179 c31 -54 113 -132 190 -183 52
-35 76 -62 64 -73 -11 -11 -132 65 -191 120 -92 84 -117 130 -122 226 l-3 76
18 -61 c10 -34 30 -81 44 -105z m1976 87 c-6 -93 -33 -141 -123 -223 -59 -55
-180 -131 -191 -120 -12 11 13 38 75 81 126 86 207 193 226 299 12 61 18 42
13 -37z m-1943 -87 c35 -53 97 -113 168 -161 32 -22 56 -42 54 -45 -9 -9 -145
97 -192 149 -52 58 -89 125 -99 178 -5 26 -1 21 18 -23 13 -32 36 -76 51 -98z
m1920 119 c-12 -53 -50 -120 -100 -176 -47 -52 -183 -158 -192 -149 -2 3 23
24 56 46 88 60 156 134 196 214 19 38 35 76 35 83 0 8 3 14 6 14 3 0 2 -15 -1
-32z m-1775 -161 c30 -29 73 -66 95 -84 22 -18 35 -32 28 -32 -36 -2 -253 241
-253 283 0 6 17 -18 37 -52 21 -35 62 -86 93 -115z m1659 107 c-35 -57 -200
-224 -222 -223 -7 0 6 14 28 32 88 71 153 140 186 196 19 32 36 57 38 55 2 -2
-11 -29 -30 -60z m-1880 -157 c32 -52 109 -118 201 -172 121 -71 104 -92 -26
-29 -155 74 -244 183 -244 298 l0 51 24 -56 c12 -31 33 -72 45 -92z m2041 -13
c-37 -77 -105 -136 -214 -188 -130 -63 -147 -42 -25 29 115 68 181 132 224
217 19 39 36 78 37 87 1 9 3 -6 5 -33 3 -40 -2 -61 -27 -112z m-1962 -32 c32
-31 90 -75 130 -97 77 -43 100 -70 30 -34 -141 71 -251 185 -272 284 -3 17 7
2 24 -33 19 -41 50 -84 88 -120z m1956 151 c-24 -99 -133 -212 -271 -282 -71
-36 -48 -9 29 34 97 53 188 145 218 218 26 62 34 72 24 30z m-2115 -129 c30
-84 159 -189 294 -239 42 -16 82 -53 60 -56 -19 -3 -59 4 -75 12 -10 6 -19 5
-23 -1 -3 -5 -12 -10 -18 -10 -8 0 -7 3 2 9 10 6 -4 17 -51 40 -117 56 -198
146 -213 239 -8 51 6 55 24 6z m2186 -6 c-15 -93 -96 -183 -213 -239 -47 -23
-61 -34 -51 -40 9 -6 10 -9 2 -9 -6 0 -15 5 -18 10 -4 6 -13 7 -23 1 -16 -8
-56 -15 -75 -12 -22 3 18 40 60 56 135 50 264 155 294 239 18 49 32 45 24 -6z
m-1645 -10 c53 -35 54 -36 41 -56 -16 -25 -111 35 -111 70 0 25 13 23 70 -14z
m1150 14 c0 -22 -22 -43 -69 -67 -28 -14 -35 -14 -42 -3 -13 20 -12 21 39 55
54 37 72 40 72 15z m-1603 -82 c36 -41 118 -92 200 -126 32 -13 49 -24 39 -24
-11 0 -57 18 -102 40 -86 42 -163 108 -190 164 -14 31 -14 31 3 6 10 -14 32
-41 50 -60z m2039 51 c-29 -55 -106 -120 -190 -161 -45 -22 -91 -40 -102 -40
-10 0 6 11 38 24 114 47 199 108 238 172 26 41 36 45 16 5z m-1036 -16 c0 -28
-56 -42 -89 -21 -11 7 -13 4 -7 -17 7 -29 -9 -46 -27 -28 -9 9 -8 14 3 21 8 5
11 12 8 16 -11 10 16 32 43 36 52 7 69 5 69 -7z m75 -21 c9 -20 14 -43 10 -51
-5 -15 -7 -15 -23 1 -15 15 -15 18 -2 26 14 9 7 15 -14 11 -10 -2 -26 18 -26
34 0 6 9 11 19 12 13 1 25 -10 36 -33z m50 17 c-3 -12 3 -29 19 -48 l25 -30
-39 0 c-37 0 -38 1 -24 21 18 26 18 36 -1 36 -8 0 -15 2 -15 4 0 2 -3 11 -6
20 -5 12 0 16 21 16 21 0 25 -4 20 -19z m-700 -21 c41 -23 52 -35 48 -49 -5
-19 -6 -19 -56 2 -29 11 -60 27 -70 36 -17 15 -17 16 -1 28 23 17 18 18 79
-17z m1209 17 c16 -12 16 -13 -1 -28 -10 -9 -41 -25 -70 -36 -50 -21 -51 -21
-56 -2 -4 14 7 26 47 49 59 34 57 34 80 17z m-1076 -21 c55 -29 112 -100 131
-162 15 -52 21 -60 47 -64 52 -9 26 -25 -41 -25 l-65 0 0 -78 c0 -71 -2 -78
-23 -86 -39 -15 -120 -17 -124 -3 -3 8 6 12 25 12 43 0 92 11 87 20 -3 4 -33
5 -69 3 -41 -4 -66 -2 -70 6 -8 12 -2 13 72 11 31 -1 52 3 52 9 0 6 -12 11
-27 11 -49 0 -103 12 -103 23 0 6 23 8 63 4 53 -5 59 -4 44 8 -10 7 -38 16
-62 20 -25 3 -45 11 -45 17 0 11 59 6 93 -7 9 -4 17 -3 17 2 0 5 -25 17 -55
27 -33 10 -55 23 -55 32 0 19 27 17 79 -6 67 -31 60 -17 -10 22 -61 33 -85 58
-57 58 8 0 40 -16 73 -35 32 -20 60 -34 62 -31 7 6 -61 58 -94 73 -34 14 -45
43 -17 43 18 0 65 -30 106 -68 15 -14 31 -22 35 -18 9 9 -56 68 -98 91 -28 15
-43 40 -33 56 9 15 62 -22 115 -79 27 -30 49 -48 49 -40 0 21 -57 85 -106 119
-24 16 -42 34 -39 40 8 12 11 12 43 -5z m287 -11 c-31 -25 -45 -31 -45 -17 0
8 50 40 65 41 6 0 -3 -11 -20 -24z m184 -10 c11 -19 16 -35 11 -35 -6 0 -10 4
-10 8 0 4 -9 8 -20 8 -11 0 -20 -4 -20 -8 0 -4 -8 -7 -17 -5 -41 6 -60 37 -24
37 11 0 22 -8 24 -17 3 -14 8 -10 18 15 7 17 14 32 15 32 1 0 11 -16 23 -35z
m436 26 c3 -6 -15 -24 -39 -40 -49 -34 -106 -98 -106 -119 0 -8 22 10 49 40
53 57 106 94 115 79 10 -16 -5 -41 -33 -56 -42 -23 -107 -82 -98 -91 4 -4 20
4 35 18 41 38 88 68 106 68 28 0 17 -29 -16 -43 -34 -15 -102 -67 -95 -73 2
-3 30 11 62 31 33 19 65 35 73 35 28 0 4 -25 -57 -58 -70 -39 -77 -53 -10 -22
52 23 79 25 79 6 0 -9 -22 -22 -55 -32 -30 -10 -55 -22 -55 -27 0 -5 8 -6 18
-2 33 13 92 18 92 7 0 -6 -20 -14 -45 -17 -24 -4 -52 -13 -62 -20 -15 -12 -9
-13 45 -8 39 4 62 2 62 -4 0 -11 -54 -23 -102 -23 -16 0 -28 -5 -28 -11 0 -6
21 -10 53 -9 73 2 79 1 71 -11 -4 -8 -29 -10 -70 -6 -36 2 -66 1 -69 -3 -5 -9
44 -20 87 -20 19 0 28 -4 25 -12 -4 -14 -85 -12 -124 3 -21 8 -23 15 -23 86
l0 78 -61 -3 c-34 -2 -66 1 -71 6 -7 7 -19 7 -34 2 -13 -5 -24 -6 -24 -1 0 12
-33 9 -42 -4 -4 -5 -10 -6 -14 -2 -10 10 16 37 35 37 9 0 23 -6 30 -12 11 -10
12 -10 7 -1 -5 9 7 12 45 10 l52 -2 18 59 c19 61 65 120 124 157 34 21 41 23
50 10z m-1519 -123 c53 -49 144 -96 222 -114 73 -17 91 -27 92 -48 0 -14 -122
1 -191 24 -127 43 -209 129 -209 219 l0 46 29 -50 c16 -27 42 -62 57 -77z
m1234 102 c6 -11 7 -20 2 -20 -10 0 -32 21 -32 32 0 16 19 8 30 -12z m915
-106 c-33 -57 -102 -107 -184 -134 -71 -23 -191 -38 -191 -24 1 21 19 31 92
48 124 28 233 104 280 193 l23 44 3 -41 c2 -30 -4 -53 -23 -86z m-1647 27 c4
-26 -14 -26 -83 -2 -50 18 -70 45 -45 61 20 12 125 -36 128 -59z m393 30 c-25
-25 -31 -26 -31 -7 0 18 43 51 48 37 2 -5 -6 -19 -17 -30z m827 6 c-2 -14 -18
-26 -53 -38 -69 -24 -87 -24 -83 2 2 14 19 27 58 43 62 25 82 23 78 -7z m-753
-17 c27 10 40 -1 50 -41 7 -28 -8 -48 -21 -28 -3 6 -2 14 4 18 16 9 1 26 -25
28 -27 3 -28 0 -8 -31 14 -21 14 -23 -3 -21 -9 0 -23 4 -30 9 -6 4 -12 2 -12
-3 0 -14 -43 -7 -48 7 -2 7 2 12 8 12 7 0 9 8 5 20 -5 15 -1 22 17 29 13 5 27
5 32 1 5 -5 19 -5 31 0z m115 3 c14 8 22 8 34 -2 11 -9 16 -10 16 -2 0 6 9 11
20 11 21 0 25 -8 12 -26 -8 -13 -60 -13 -80 0 -10 6 -11 2 -6 -18 8 -34 -3
-51 -24 -34 -12 10 -14 10 -8 1 4 -7 2 -13 -3 -13 -19 0 -12 22 8 27 13 3 17
11 14 24 -4 15 -9 17 -18 9 -10 -8 -15 -8 -20 1 -9 14 17 31 29 19 5 -5 16 -4
26 3z m155 -7 c19 -18 29 -62 17 -70 -5 -3 -16 1 -23 10 -10 13 -10 17 2 25
13 8 5 13 -15 10 -9 -2 -26 18 -26 32 0 12 31 8 45 -7z m-1112 -92 c34 -19 58
-34 53 -34 -20 0 -146 74 -172 102 l-29 32 43 -34 c24 -18 72 -48 105 -66z
m1952 67 c-26 -28 -152 -101 -171 -101 -5 0 19 16 53 34 34 18 79 47 100 64
48 40 55 40 18 3z m-885 9 c0 -5 -5 -10 -11 -10 -5 0 -7 5 -4 10 3 6 8 10 11
10 2 0 4 -4 4 -10z m-775 -19 c47 -14 61 -23 63 -40 3 -21 1 -22 -35 -15 -74
13 -102 30 -103 62 0 16 3 15 75 -7z m1325 7 c-1 -32 -29 -49 -103 -62 -36 -7
-38 -6 -35 15 2 17 16 26 58 39 68 22 80 23 80 8z m-879 -37 c11 -25 18 -29
40 -24 15 3 30 0 34 -6 5 -9 10 -9 20 -1 15 12 55 5 55 -10 0 -13 -37 -19 -49
-7 -7 7 -11 7 -11 1 0 -12 -29 -12 -48 0 -6 4 -12 3 -12 -2 0 -14 -43 -7 -48
7 -3 8 2 17 9 22 8 5 9 9 3 9 -7 0 -14 9 -17 20 -8 31 10 24 24 -9z m279 10
c1 -14 2 -14 14 2 17 23 38 22 54 -3 10 -17 10 -20 -5 -17 -10 1 -24 6 -30 10
-7 5 -13 4 -13 -1 0 -5 -15 -9 -34 -8 -28 1 -32 4 -26 17 5 9 16 16 24 16 9 0
16 -7 16 -16z m-1124 -119 c55 -35 135 -58 231 -68 49 -5 66 -11 74 -27 11
-19 9 -20 -91 -12 -166 11 -242 43 -289 118 -12 19 -24 50 -27 68 l-7 34 30
-41 c17 -22 52 -54 79 -72z m2144 52 c-7 -21 -31 -56 -54 -79 -51 -50 -117
-71 -260 -81 -96 -7 -98 -6 -88 13 9 16 26 22 75 27 146 15 261 67 309 141 27
40 35 30 18 -21z m-1745 18 c49 -14 60 -20 57 -36 -3 -16 -10 -18 -55 -12 -63
9 -87 21 -87 46 0 24 8 24 85 2z m701 7 c3 -5 11 -6 17 -2 17 11 97 12 97 1 0
-5 5 -6 10 -3 6 3 10 1 10 -4 0 -13 0 -13 -127 -14 -81 -1 -98 2 -101 14 -2
12 7 16 43 17 25 0 48 -4 51 -9z m634 -9 c0 -25 -24 -37 -87 -46 -45 -6 -52
-4 -55 12 -3 15 7 22 52 35 76 23 90 23 90 -1z m-1675 -78 c-5 -5 -83 36 -89
47 -3 5 16 -3 43 -18 27 -14 48 -27 46 -29z m2020 48 c-7 -11 -79 -50 -92 -50
-4 0 15 13 42 29 60 34 58 34 50 21z m-1830 -10 c13 -5 14 -9 5 -9 -8 0 -24 4
-35 9 -13 5 -14 9 -5 9 8 0 24 -4 35 -9z m606 3 c21 13 49 2 57 -23 3 -9 0
-10 -9 -4 -18 11 -49 13 -49 3 0 -5 -7 -6 -15 -3 -8 4 -15 14 -14 23 0 9 3 11
6 4 3 -10 9 -10 24 0z m92 -8 c-6 -17 -25 -15 -31 3 -2 7 5 12 17 12 14 0 19
-5 14 -15z m77 0 c7 -9 10 -19 6 -22 -4 -4 -10 -3 -14 2 -4 6 -14 10 -22 10
-8 0 -18 -4 -22 -10 -4 -5 -10 -6 -14 -2 -10 10 16 37 36 37 10 0 23 -7 30
-15z m54 3 c5 -10 7 -10 12 0 3 6 15 12 26 12 11 0 18 -5 15 -12 -2 -7 -12
-12 -21 -12 -9 1 -16 -2 -16 -8 0 -5 -6 -6 -12 -1 -7 4 -19 8 -27 8 -23 0 -25
25 -3 25 11 0 23 -6 26 -12z m751 2 c-11 -5 -27 -9 -35 -9 -9 0 -8 4 5 9 11 5
27 9 35 9 9 0 8 -4 -5 -9z m-1377 -48 c6 -19 -112 -16 -129 4 -10 12 -10 17 0
23 17 11 124 -12 129 -27z m1282 19 c0 -20 -30 -31 -83 -31 -75 0 -73 20 4 36
53 10 79 9 79 -5z m-1684 -97 c31 -9 89 -20 128 -25 l71 -8 -85 4 c-106 4
-187 32 -229 81 -45 50 -38 53 13 6 30 -28 63 -46 102 -58z m2094 91 c0 -2
-14 -20 -31 -39 -42 -49 -123 -77 -229 -81 l-85 -4 71 8 c115 14 181 37 227
81 43 40 47 43 47 35z m-772 -192 l2 -183 -105 0 -105 0 0 55 0 55 -65 0 -65
0 0 123 c0 68 3 127 7 131 4 3 79 5 167 4 l161 -3 3 -182z m-1359 83 c43 -22
127 -36 215 -36 65 0 85 -3 90 -15 3 -8 1 -15 -5 -15 -6 0 -8 -3 -6 -7 3 -5
-30 -9 -72 -10 -42 -2 -91 -5 -109 -9 -25 -4 -32 -2 -27 7 6 9 -2 10 -31 6
-21 -4 -33 -4 -26 -1 7 3 -9 16 -38 31 -50 25 -81 58 -99 106 -10 26 -9 25 36
-9 25 -19 57 -41 72 -48z m2131 58 c-19 -49 -50 -82 -100 -107 -29 -15 -45
-28 -38 -31 7 -3 -5 -3 -26 1 -29 4 -37 3 -31 -6 5 -9 -2 -11 -27 -7 -18 4
-67 7 -109 9 -42 1 -75 5 -72 10 2 4 0 7 -6 7 -6 0 -8 7 -5 15 5 12 25 15 93
15 47 0 112 6 143 14 54 12 143 61 168 92 18 21 21 17 10 -12z m-1947 9 c-7
-2 -19 -2 -25 0 -7 3 -2 5 12 5 14 0 19 -2 13 -5z m1680 0 c-7 -2 -19 -2 -25
0 -7 3 -2 5 12 5 14 0 19 -2 13 -5z m-1626 -9 c-3 -3 -12 -4 -19 -1 -8 3 -5 6
6 6 11 1 17 -2 13 -5z m203 -13 c0 -15 -10 -19 -57 -24 -42 -5 -62 -2 -72 7
-24 24 -2 36 65 36 56 0 64 -2 64 -19z m1276 8 c15 -24 -20 -38 -78 -32 -48 5
-58 9 -58 24 0 17 8 19 64 19 36 0 68 -5 72 -11z m91 5 c-3 -3 -12 -4 -19 -1
-8 3 -5 6 6 6 11 1 17 -2 13 -5z m-1353 -69 c4 -10 -3 -17 -22 -21 -15 -3 -41
-10 -59 -14 -39 -10 -74 9 -51 27 30 25 123 31 132 8z m1243 -6 c24 -20 -9
-39 -50 -29 -18 4 -44 11 -59 14 -20 5 -26 11 -21 22 5 13 16 15 60 11 30 -3
61 -11 70 -18z m-1424 -6 c-7 -2 -19 -2 -25 0 -7 3 -2 5 12 5 14 0 19 -2 13
-5z m1500 0 c-7 -2 -19 -2 -25 0 -7 3 -2 5 12 5 14 0 19 -2 13 -5z m-1774 -51
c-9 -4 -66 24 -73 36 -3 5 14 -1 38 -12 23 -12 39 -22 35 -24z m2101 43 c0 -9
-64 -45 -80 -45 -8 0 6 11 30 24 25 13 46 24 48 25 1 0 2 -1 2 -4z m-1918 -80
c90 0 149 -4 150 -10 5 -20 -105 -47 -192 -48 -96 -1 -175 26 -210 71 -36 45
-23 51 42 18 61 -30 66 -30 210 -31z m295 49 c4 -13 -94 -51 -119 -46 -33 7
-19 31 25 42 23 6 47 13 52 15 17 6 38 1 42 -11z m1166 -5 c38 -10 50 -35 20
-41 -15 -3 -110 26 -122 37 -1 2 0 9 4 15 7 11 16 10 98 -11z m452 -25 c-9
-14 -42 -38 -73 -52 -48 -22 -70 -26 -142 -25 -87 1 -197 29 -192 48 1 6 60
10 150 10 142 1 149 2 207 30 64 32 77 29 50 -11z m-1454 21 c0 -14 -100 -35
-107 -23 -9 14 -2 18 47 27 51 10 61 9 60 -4z m812 0 c35 -5 45 -14 32 -27 -6
-5 -72 6 -103 17 -19 7 -4 27 16 21 10 -2 34 -7 55 -11z m-1180 -22 c-7 -2
-21 -2 -30 0 -10 3 -4 5 12 5 17 0 24 -2 18 -5z m1510 0 c-7 -2 -21 -2 -30 0
-10 3 -4 5 12 5 17 0 24 -2 18 -5z m-1274 -17 c9 -11 1 -18 -43 -36 -54 -21
-101 -20 -94 2 4 12 84 47 109 47 9 1 22 -5 28 -13z m141 8 c0 -8 -66 -34 -87
-34 -26 0 -4 17 37 28 44 13 50 13 50 6z m800 -17 c37 -14 6 -21 -35 -7 -43
14 -58 34 -18 24 15 -4 39 -11 53 -17z m163 -1 c20 -9 37 -20 37 -25 0 -22
-44 -22 -96 -1 -46 19 -52 25 -42 37 13 16 42 13 101 -11z m-1493 -66 c36 0
98 9 138 20 78 22 106 25 84 11 -10 -6 -9 -10 7 -14 35 -9 24 -23 -37 -50
-127 -58 -279 -56 -345 3 -18 16 -30 31 -27 33 3 3 32 -4 65 -15 74 -25 194
-20 270 11 61 24 55 26 -22 6 -109 -29 -261 -15 -299 26 -13 15 -6 13 43 -7
40 -16 78 -24 123 -24z m419 27 c-2 -1 -25 -20 -51 -40 -41 -33 -50 -36 -69
-27 -18 10 -19 14 -8 25 29 28 112 66 123 55 5 -5 8 -11 5 -13z m92 3 c-26
-22 -37 -25 -46 -10 -6 10 28 28 55 29 10 0 8 -6 -9 -19z m784 10 c14 -5 23
-14 20 -20 -9 -15 -20 -12 -46 10 -26 21 -15 26 26 10z m165 -35 c22 -14 40
-27 40 -30 0 -2 -9 -9 -20 -15 -17 -9 -28 -5 -68 27 -26 20 -49 38 -51 39 -1
2 0 7 3 13 8 13 40 1 96 -34z m486 27 c-38 -42 -189 -56 -299 -27 -77 20 -83
18 -22 -6 76 -31 196 -36 270 -11 33 11 62 18 65 15 3 -2 -9 -17 -27 -33 -66
-59 -218 -61 -345 -3 -61 27 -72 41 -37 50 16 4 17 8 7 14 -22 14 6 11 84 -11
99 -27 188 -26 258 4 30 13 57 24 59 25 2 0 -3 -7 -13 -17z m-1488 -40 c5 -17
-62 -82 -86 -82 -38 0 -34 21 9 61 42 39 68 46 77 21z m72 10 c0 -13 -12 -22
-22 -16 -10 6 -1 24 13 24 5 0 9 -4 9 -8z m741 -5 c-1 -12 -15 -9 -19 4 -3 6
1 10 8 8 6 -3 11 -8 11 -12z m128 -26 c43 -39 47 -61 12 -61 -36 0 -100 67
-86 90 11 18 31 10 74 -29z m-494 -31 c6 -27 10 -30 46 -30 21 0 39 -2 39 -5
0 -3 -12 -16 -27 -29 -25 -21 -26 -25 -16 -65 l11 -42 -33 25 -34 26 -29 -25
c-40 -33 -43 -32 -27 13 13 37 13 37 -22 67 l-35 31 40 -4 c40 -4 41 -3 53 37
13 45 24 45 34 1z m-685 8 c-72 -33 -140 -48 -215 -46 l-70 1 90 7 c60 5 111
16 150 33 72 30 109 34 45 5z m286 11 c7 -12 -73 -99 -92 -99 -30 0 -23 25 17
66 44 45 62 53 75 33z m843 -33 c40 -41 47 -66 17 -66 -19 0 -99 87 -92 99 13
20 31 12 75 -33z m250 18 c43 -17 96 -29 156 -34 l90 -7 -70 -1 c-75 -2 -143
13 -215 46 -64 29 -38 27 39 -4z m-1314 -5 c9 -13 -14 -31 -90 -71 -49 -26
-75 -32 -141 -36 -94 -5 -145 8 -174 45 -11 14 -19 28 -17 30 2 2 21 -4 43
-13 62 -26 190 -15 284 24 86 35 87 36 95 21z m1302 -21 c98 -39 225 -50 287
-24 22 9 41 15 43 13 2 -2 -6 -16 -17 -30 -29 -37 -80 -50 -174 -45 -66 4 -92
10 -141 36 -76 40 -99 58 -90 71 8 14 3 15 92 -21z m-1057 -19 c0 -50 -74
-112 -87 -73 -3 9 73 104 83 104 2 0 4 -14 4 -31z m807 -72 c-7 -22 -28 -18
-57 11 -22 22 -30 40 -30 64 l1 33 45 -49 c25 -27 43 -53 41 -59z m-1061 58
c-55 -48 -135 -78 -229 -83 -44 -2 -83 0 -88 5 -5 5 17 7 55 5 82 -5 154 16
231 67 74 49 81 50 31 6z m1372 -61 c34 -10 78 -15 118 -12 34 2 60 0 58 -4
-10 -16 -140 -8 -196 11 -60 21 -125 58 -148 86 -8 10 14 -1 50 -24 35 -23 88
-49 118 -57z m-1297 66 c5 0 9 -4 9 -9 0 -15 -147 -109 -188 -121 -51 -14
-152 -12 -181 4 -21 12 -16 13 59 19 68 4 96 12 154 41 40 19 81 45 91 56 10
11 25 18 33 15 7 -3 18 -5 23 -5z m1152 -23 c68 -52 141 -78 230 -85 72 -5 77
-6 56 -18 -29 -16 -130 -18 -181 -4 -40 12 -188 106 -188 120 0 5 8 11 18 13
9 3 18 5 19 6 2 0 22 -14 46 -32z m-753 -8 c0 -63 23 -122 62 -161 21 -21 45
-38 53 -38 13 0 15 -21 15 -130 0 -82 -4 -130 -10 -130 -26 0 -137 66 -182
108 -84 78 -128 176 -143 315 l-7 67 106 0 106 0 0 -31z m-350 -34 c0 -22
-119 -113 -178 -135 -60 -23 -109 -25 -147 -8 -34 15 -32 26 5 20 53 -8 164
34 232 87 66 52 88 61 88 36z m769 -4 c32 -28 29 -67 -9 -136 -73 -134 -129
-189 -183 -178 -41 8 -54 42 -37 94 22 65 120 201 160 221 43 22 42 22 69 -1z
m296 -31 c71 -54 183 -96 235 -88 37 6 39 -5 5 -20 -65 -30 -167 1 -262 78
-57 46 -79 80 -54 80 6 0 40 -22 76 -50z m-1150 20 c-35 -39 -138 -81 -206
-85 l-64 -4 62 9 c68 10 129 34 183 74 43 31 49 32 25 6z m215 -5 c0 -16 -6
-25 -15 -25 -18 0 -20 21 -3 38 17 17 18 16 18 -13z m750 -11 c0 -8 -7 -14
-15 -14 -10 0 -15 10 -15 26 0 22 2 25 15 14 8 -7 15 -19 15 -26z m297 -40
c20 -9 63 -19 97 -24 l61 -9 -64 4 c-69 4 -172 47 -207 86 -14 16 -6 14 29
-10 26 -18 64 -39 84 -47z m-1195 13 c-49 -50 -134 -103 -177 -112 -24 -4 -23
-3 8 10 43 16 151 91 181 124 11 11 22 21 25 21 3 0 -14 -19 -37 -43z m1101
-56 c26 -18 64 -39 85 -47 31 -12 32 -13 7 -9 -45 9 -129 63 -177 114 l-43 45
40 -35 c23 -19 62 -50 88 -68z m-1043 49 c-66 -93 -202 -166 -269 -145 -31 9
-18 22 31 29 56 8 131 52 188 109 50 49 84 54 50 7z m1045 -81 c27 -16 69 -31
93 -35 49 -7 62 -20 31 -29 -31 -10 -87 3 -142 33 -60 32 -154 131 -136 143 8
5 29 -9 58 -38 25 -25 68 -58 96 -74z m-1005 88 c0 -2 -12 -14 -27 -28 l-26
-24 19 27 c16 23 34 36 34 25z m853 -22 c23 -32 17 -32 -13 0 -13 14 -19 25
-14 25 5 0 17 -12 27 -25z m-832 -13 c-37 -70 -141 -153 -208 -167 -38 -8 -46
10 -10 21 30 9 110 65 103 72 -3 3 -14 -2 -23 -10 -21 -18 -63 -41 -63 -34 0
2 17 15 38 27 20 13 43 28 51 33 9 6 12 5 7 -3 -4 -6 -3 -11 2 -11 6 0 29 23
52 50 23 28 46 47 51 44 5 -3 5 -12 0 -22z m882 -72 c5 0 5 5 1 11 -5 8 -2 9
7 3 8 -5 31 -20 52 -33 20 -12 37 -25 37 -27 0 -7 -42 16 -63 34 -9 8 -20 13
-23 10 -7 -7 73 -63 104 -72 23 -8 31 -26 10 -26 -57 2 -139 57 -198 132 -55
69 -39 85 19 19 25 -28 50 -51 54 -51z m-899 -40 c-33 -32 -70 -61 -83 -65
-15 -5 -21 -3 -17 3 3 6 3 12 -1 14 -5 1 21 30 56 63 59 54 62 56 32 18 -18
-24 -44 -52 -58 -63 -14 -11 -21 -20 -16 -20 6 0 39 31 74 68 40 43 65 62 68
53 1 -7 -23 -40 -55 -71z m899 -50 c5 0 -2 9 -16 20 -14 11 -40 39 -58 63 -30
38 -27 36 32 -18 35 -33 61 -62 56 -63 -4 -2 -4 -8 -1 -14 4 -6 -2 -8 -17 -3
-33 10 -139 115 -139 137 0 12 22 -5 66 -52 37 -38 71 -70 77 -70z m-823 65
c0 -16 -68 -85 -84 -85 -6 0 -1 7 11 15 12 8 31 31 43 50 24 38 30 43 30 20z
m722 -57 c39 -41 17 -34 -25 7 -21 20 -37 44 -36 53 0 13 4 11 17 -8 9 -14 29
-37 44 -52z m-752 49 c0 -2 -12 -14 -27 -28 l-26 -24 19 27 c16 23 34 36 34
25z m753 -22 c23 -32 17 -32 -13 0 -13 14 -19 25 -14 25 5 0 17 -12 27 -25z
m-686 -55 c-3 -13 0 -17 10 -13 11 4 14 0 11 -13 -2 -11 -13 -20 -26 -22 -19
-3 -22 1 -22 31 0 18 3 37 6 40 12 11 26 -5 21 -23z m613 -16 c0 -31 -3 -35
-22 -32 -13 2 -24 11 -26 22 -3 14 0 17 13 13 10 -4 14 -3 10 4 -9 14 3 42 15
34 5 -3 10 -22 10 -41z m-663 -47 c-6 -20 -27 -19 -27 2 0 14 5 19 15 14 9 -3
14 -10 12 -16z m109 0 c8 3 14 -1 14 -10 0 -14 -20 -27 -41 -27 -11 0 -12 43
-1 54 4 4 8 1 10 -8 2 -8 9 -13 18 -9z m504 -13 c0 -26 -18 -32 -38 -12 -17
17 -15 31 3 24 9 -3 15 0 15 10 0 8 5 12 10 9 6 -3 10 -17 10 -31z m96 -2 c-4
-3 -12 0 -19 7 -9 9 -9 14 3 21 11 7 16 5 18 -6 2 -9 1 -18 -2 -22z m-682 -7
c-5 -11 -2 -13 10 -9 10 4 16 1 16 -9 0 -13 -20 -27 -39 -27 -4 0 -7 10 -5 23
1 12 3 25 3 30 1 4 5 7 11 7 5 0 7 -7 4 -15z m654 -18 c2 -15 -1 -27 -7 -27
-21 0 -41 13 -41 27 0 10 6 13 16 9 12 -5 15 -2 10 10 -4 10 -1 14 6 12 7 -3
14 -17 16 -31z m-691 -20 c-6 -20 -27 -19 -27 2 0 14 5 19 15 14 9 -3 14 -10
12 -16z m163 13 c13 -9 13 -11 0 -19 -17 -12 -30 -5 -30 15 0 16 9 18 30 4z
m410 -4 c0 -20 -13 -27 -30 -15 -13 8 -13 10 0 19 21 14 30 12 30 -4z m156
-24 c-4 -3 -12 0 -19 7 -9 9 -9 14 3 21 11 7 16 5 18 -6 2 -9 1 -18 -2 -22z
m-612 -13 c19 -4 19 -5 2 -21 -25 -25 -46 -23 -46 5 0 27 11 42 19 28 3 -5 15
-10 25 -12z m96 10 c0 -5 4 -8 9 -4 16 10 24 -16 9 -31 -12 -12 -15 -10 -25
16 -6 17 -7 30 -2 30 5 0 9 -5 9 -11z m287 -19 c-10 -26 -13 -28 -25 -16 -15
15 -7 41 9 31 5 -4 9 -1 9 4 0 6 4 11 9 11 5 0 4 -13 -2 -30z m133 -6 c0 -28
-21 -32 -46 -6 -17 16 -17 17 4 20 12 2 22 8 22 13 0 6 5 7 10 4 6 -3 10 -17
10 -31z m-587 -15 c4 1 7 -1 7 -4 0 -3 0 -9 0 -15 0 -5 -9 -10 -20 -10 -14 0
-20 7 -20 23 0 30 13 43 20 22 3 -9 9 -16 13 -16z m94 -189 c-26 -80 -52 -149
-57 -154 -6 -6 -19 -5 -35 2 -20 9 -25 19 -25 46 0 38 -20 52 -50 36 -51 -27
-17 50 64 145 28 33 36 37 49 27 12 -11 18 -7 36 23 11 20 25 34 31 30 5 -3
12 11 17 32 l7 38 6 -40 c5 -31 -5 -71 -43 -185z m417 156 c7 3 21 -11 31 -30
14 -26 22 -32 32 -25 6 6 17 8 22 4 14 -8 94 -113 110 -143 15 -29 6 -45 -19
-32 -30 16 -50 2 -50 -36 0 -27 -5 -37 -25 -46 -16 -7 -29 -8 -34 -2 -5 5 -31
74 -58 154 -35 106 -47 156 -44 185 l4 40 9 -37 c6 -23 14 -35 22 -32z m-284
44 c0 -5 7 -7 15 -4 19 8 20 -19 2 -35 -11 -8 -16 -5 -25 15 -15 31 -15 34 -2
34 6 0 10 -4 10 -10z m170 -25 c-10 -19 -16 -22 -27 -14 -18 16 -17 43 2 36 8
-4 17 -2 21 4 13 21 17 -2 4 -26z m250 10 c0 -18 -5 -25 -20 -25 -18 0 -24 8
-17 28 1 4 5 6 10 5 4 -2 7 2 7 7 0 6 5 10 10 10 6 0 10 -11 10 -25z m-1096
-73 c74 -90 73 -85 27 -143 -23 -28 -41 -55 -41 -60 0 -5 14 -24 31 -44 21
-24 26 -35 16 -35 -14 0 -47 39 -129 155 -20 28 -46 59 -57 69 -31 28 -16 39
45 31 l54 -7 -20 54 c-11 29 -20 57 -20 61 0 14 53 -32 94 -81z m379 56 c-7
-13 -33 -9 -33 5 0 8 3 16 6 20 8 8 33 -16 27 -25z m182 22 c3 -5 1 -10 -4
-10 -6 0 -11 5 -11 10 0 6 2 10 4 10 3 0 8 -4 11 -10z m405 0 c0 -5 -5 -10
-11 -10 -5 0 -7 5 -4 10 3 6 8 10 11 10 2 0 4 -4 4 -10z m200 -16 c0 -14 -21
-19 -33 -8 -8 8 16 33 26 27 4 -2 7 -11 7 -19z m421 -39 l-21 -56 54 6 c61 8
76 -3 45 -31 -11 -10 -37 -41 -57 -69 -82 -116 -115 -155 -129 -155 -10 0 -5
11 16 35 17 20 31 39 31 44 0 5 -19 32 -41 60 l-41 52 27 39 c34 49 125 143
132 136 3 -2 -5 -30 -16 -61z m-801 41 c0 -7 -6 -18 -12 -24 -17 -17 10 -36
29 -20 16 13 16 0 -1 -30 -12 -23 -13 -22 -43 27 -17 27 -30 51 -28 53 9 9 55
4 55 -6z m-272 -28 c-6 -18 -25 -20 -31 -3 -5 10 0 15 14 15 12 0 19 -5 17
-12z m146 -20 c-4 -6 -10 -5 -15 3 -14 22 -10 33 6 19 8 -7 12 -17 9 -22z
m216 12 c-6 -11 -16 -17 -22 -14 -7 5 -5 12 7 21 25 18 28 17 15 -7z m153 5
c-6 -17 -25 -15 -31 3 -2 7 5 12 17 12 14 0 19 -5 14 -15z m-613 -28 c0 -3 -7
-7 -15 -11 -11 -4 -15 2 -15 20 0 23 2 24 15 10 8 -8 15 -17 15 -19z m708 -2
c-2 -10 -8 -12 -17 -6 -12 8 -12 11 0 24 15 16 23 8 17 -18z m-658 4 c0 -12
-29 -24 -37 -16 -3 4 -3 13 0 21 6 16 37 11 37 -5z m266 8 c17 6 18 -2 3 -29
-11 -21 -12 -21 -25 3 -16 30 -18 47 -3 32 6 -6 18 -9 25 -6z m354 -13 c0 -17
-26 -19 -36 -3 -7 12 15 31 28 23 4 -3 8 -12 8 -20z m-458 -26 c-8 -8 -12 -9
-12 -1 0 6 -3 20 -6 30 -7 17 -6 17 12 1 14 -14 16 -20 6 -30z m273 12 c-5
-16 -10 -19 -18 -11 -7 7 -6 15 3 26 17 20 24 13 15 -15z m-225 -10 c0 -5 7
-10 15 -10 18 0 19 -12 3 -28 -8 -8 -14 -5 -25 15 -16 30 -16 33 -3 33 6 0 10
-4 10 -10z m167 -24 c-13 -23 -16 -24 -27 -11 -7 9 -11 16 -9 18 53 30 55 30
36 -7z m-461 10 c24 6 23 4 -16 -59 -50 -80 -50 -103 3 -100 29 2 37 -1 37
-15 0 -14 -11 -17 -57 -19 -50 -3 -62 -8 -105 -44 -26 -22 -52 -37 -58 -34
-18 11 -10 25 25 42 19 9 35 20 35 25 0 14 -16 9 -54 -17 -21 -14 -42 -23 -47
-19 -15 9 -1 23 38 39 45 19 39 28 -8 15 -33 -9 -49 -28 -62 -70 -4 -12 -6
-11 -12 4 -5 11 -3 21 5 26 7 4 10 12 6 18 -3 6 4 18 16 26 18 13 19 16 6 16
-9 0 -23 -9 -31 -21 -15 -20 -15 -20 -47 8 -38 34 -35 46 23 101 40 39 54 38
106 -9 l33 -31 -33 -28 c-38 -32 -26 -41 13 -11 13 11 37 23 51 26 27 7 37 21
78 105 12 25 24 39 26 33 3 -8 14 -11 29 -7z m804 -28 c40 -82 50 -96 77 -103
14 -3 38 -15 51 -26 39 -30 51 -21 13 11 l-33 28 33 31 c52 47 66 48 106 9 58
-55 61 -67 23 -101 -32 -28 -32 -28 -47 -8 -8 12 -22 21 -31 21 -13 0 -12 -3
6 -16 12 -8 19 -20 16 -26 -4 -6 -1 -14 6 -18 8 -5 10 -15 5 -26 -6 -15 -8
-16 -12 -4 -13 42 -29 61 -62 70 -47 13 -53 4 -8 -15 39 -16 53 -30 38 -39 -5
-4 -26 5 -47 19 -38 26 -54 31 -54 17 0 -5 16 -16 35 -25 35 -17 43 -31 25
-42 -6 -3 -32 12 -58 34 -43 36 -55 41 -105 44 -46 2 -57 5 -57 19 0 14 8 17
37 15 53 -3 53 20 3 100 -40 64 -40 65 -15 59 14 -4 25 -2 25 4 0 20 9 10 30
-32z m-400 8 c0 -6 -7 -19 -14 -29 -13 -16 -14 -16 -30 7 -21 33 -21 33 14 33
17 0 30 -5 30 -11z m-180 -23 c-1 -41 -44 -206 -55 -210 -32 -9 -31 17 4 125
36 111 51 137 51 85z m56 -10 c-4 -4 -11 -1 -16 7 -16 25 -11 35 7 17 9 -9 13
-20 9 -24z m295 -76 c36 -110 36 -126 3 -127 -11 0 -54 175 -54 218 0 46 16
18 51 -91z m-87 88 c-4 -8 -10 -12 -15 -9 -11 6 -2 24 11 24 5 0 7 -7 4 -15z
m-141 -21 c4 -1 9 -2 12 -3 3 0 1 -10 -5 -22 -11 -20 -12 -20 -25 -2 -18 23
-19 47 -2 36 6 -4 15 -8 20 -9z m77 -25 c-10 -17 -14 -19 -21 -8 -12 19 -11
42 0 34 5 -3 13 0 17 7 13 21 16 -9 4 -33z m-170 -98 c-13 -84 -18 -95 -38
-82 -10 6 -9 23 3 77 23 101 26 107 37 96 6 -6 5 -38 -2 -91z m64 67 c-4 -6
-10 -5 -15 3 -14 22 -10 33 6 19 8 -7 12 -17 9 -22z m127 5 c-8 -15 -10 -15
-11 -2 0 17 10 32 18 25 2 -3 -1 -13 -7 -23z m79 -62 c17 -68 19 -86 8 -92 -7
-5 -16 -5 -20 -1 -11 11 -31 151 -24 169 9 23 12 17 36 -76z m-120 45 c0 -6
-7 -19 -14 -29 -13 -16 -14 -16 -30 7 -21 33 -21 33 14 33 17 0 30 -5 30 -11z
m-96 -89 c-5 -40 -11 -57 -21 -57 -11 0 -13 10 -8 48 10 68 16 85 26 75 5 -5
7 -35 3 -66z m159 -9 c5 -38 4 -48 -7 -48 -17 0 -33 100 -20 121 9 16 19 -9
27 -73z m-790 27 c39 -35 33 -51 -8 -19 -33 25 -45 44 -27 44 4 0 19 -12 35
-25z m1437 16 c0 -5 -16 -21 -35 -35 -41 -32 -47 -16 -7 19 29 26 42 31 42 16z
m-752 -49 c2 -33 0 -42 -12 -42 -12 0 -16 11 -16 46 0 59 24 55 28 -4z m52 3
c0 -33 -4 -45 -15 -45 -11 0 -15 11 -15 38 0 21 3 42 7 45 16 16 23 4 23 -38z
m-378 -1 c206 -86 473 -86 668 2 45 20 68 25 95 20 37 -7 105 -59 105 -81 0
-18 -126 -77 -245 -115 -250 -80 -491 -60 -742 62 -46 22 -83 43 -83 47 0 14
47 61 75 76 41 20 56 19 127 -11z m-269 -49 c-7 -21 -13 -19 -13 6 0 11 4 18
10 14 5 -3 7 -12 3 -20z m1227 3 c0 -18 -2 -20 -9 -8 -6 8 -7 18 -5 22 9 14
14 9 14 -14z m-1190 -30 c0 -18 -2 -20 -9 -8 -6 8 -7 18 -5 22 9 14 14 9 14
-14z m1153 -3 c-7 -21 -13 -19 -13 6 0 11 4 18 10 14 5 -3 7 -12 3 -20z m-843
-139 c0 -34 -75 -114 -98 -104 -5 1 4 31 19 64 25 56 30 61 53 57 15 -3 26
-10 26 -17z m600 -43 c13 -29 21 -56 17 -59 -17 -17 -97 68 -97 103 0 12 41
23 51 14 3 -4 16 -30 29 -58z m-520 30 c0 -16 -44 -84 -59 -93 -30 -16 -31
-14 -10 49 18 53 22 58 44 53 14 -2 25 -6 25 -9z m426 -43 c26 -73 10 -82 -36
-18 -41 56 -40 65 10 77 3 0 14 -26 26 -59z m-356 21 c0 -21 -40 -83 -57 -89
-12 -3 -8 12 22 96 7 19 35 14 35 -7z m271 -39 c21 -61 8 -66 -28 -12 -27 40
-30 73 -6 68 9 -2 23 -25 34 -56z m-187 21 c-9 -39 -30 -77 -50 -94 -16 -13
-17 -11 -10 21 4 19 10 50 13 68 4 26 10 32 29 32 21 0 24 -3 18 -27z m99 -5
c3 -18 9 -49 13 -68 7 -33 6 -34 -11 -20 -19 15 -54 85 -55 108 0 6 11 12 24
12 19 0 25 -7 29 -32z"/>
<path d="M1090 1907 c0 -13 5 -17 16 -13 9 3 20 6 25 6 4 0 6 6 3 14 -8 22
-44 15 -44 -7z"/>
<path d="M1415 1703 c-75 -10 -115 -48 -115 -110 0 -35 14 -60 25 -43 4 6 13
9 20 6 8 -3 16 0 19 7 2 7 5 4 5 -5 1 -10 6 -18 11 -18 6 0 10 -21 10 -48 0
-45 2 -48 35 -58 19 -6 40 -7 47 -3 10 7 9 9 -3 9 -20 0 -29 20 -29 60 0 30
14 47 25 31 3 -6 14 -2 25 9 11 11 27 20 36 20 11 0 14 6 8 23 -4 12 -9 24
-13 27 -3 3 -13 18 -21 35 -17 34 -42 66 -50 64 -3 -1 -18 -4 -35 -6z m-17
-45 c7 -7 12 -21 12 -32 0 -20 -1 -20 -16 2 -18 26 -31 28 -56 5 -15 -13 -18
-14 -18 -2 0 21 21 39 45 39 12 0 26 -5 33 -12z"/>
<path d="M1046 1302 c-3 -6 3 -12 15 -15 12 -3 19 -1 16 6 -5 15 -24 20 -31 9z"/>
<path d="M1030 1273 c0 -3 8 -12 18 -20 16 -14 16 -14 0 -9 -10 3 -18 1 -18
-4 0 -6 6 -10 14 -10 10 0 12 -7 8 -22 -3 -13 -1 -19 5 -15 6 4 11 22 11 41 0
25 -5 36 -19 39 -10 3 -19 3 -19 0z"/>
<path d="M960 1260 c0 -14 18 -21 25 -11 3 6 13 7 23 4 9 -3 14 -3 10 2 -10
11 -58 15 -58 5z"/>
<path d="M978 1223 c-10 -2 -18 -9 -18 -14 0 -13 12 -11 34 6 20 15 16 17 -16
8z"/>
<path d="M1032 1190 c0 -14 2 -19 5 -12 2 6 2 18 0 25 -3 6 -5 1 -5 -13z"/>
<path d="M978 1186 c-20 -9 -25 -15 -17 -23 8 -8 16 -6 31 9 25 25 21 28 -14
14z"/>
<path d="M1057 1170 c-15 -17 -14 -21 5 -45 19 -24 21 -25 34 -8 11 15 14 15
15 3 1 -8 1 -20 0 -27 -1 -6 4 -15 10 -19 8 -5 10 -2 6 9 -3 9 1 18 11 22 15
6 14 8 -5 16 -13 4 -31 22 -41 38 -18 29 -19 30 -35 11z m32 -23 c6 -8 8 -16
5 -20 -10 -9 -34 4 -34 19 0 18 14 18 29 1z"/>
<path d="M996 1144 c-3 -8 -11 -12 -17 -8 -7 4 -10 1 -7 -6 6 -20 28 -24 28
-7 0 9 5 17 12 19 8 3 9 6 1 11 -6 4 -14 0 -17 -9z"/>
<path d="M1015 1110 c-3 -5 -1 -10 4 -10 6 0 11 5 11 10 0 6 -2 10 -4 10 -3 0
-8 -4 -11 -10z"/>
<path d="M1151 1096 c-8 -10 -8 -16 3 -25 10 -8 16 -9 21 -1 3 5 1 10 -6 10
-8 0 -8 4 1 15 7 8 8 15 2 15 -5 0 -15 -6 -21 -14z"/>
<path d="M990 1086 c0 -2 7 -9 15 -16 12 -10 15 -10 15 4 0 9 -7 16 -15 16 -8
0 -15 -2 -15 -4z"/>
<path d="M1040 1065 c0 -8 -6 -15 -12 -15 -9 0 -8 -4 2 -10 22 -14 25 -13 25
15 0 14 -3 25 -7 25 -5 0 -8 -7 -8 -15z"/>
<path d="M1113 1028 c3 -9 -2 -23 -14 -34 -10 -9 -17 -19 -15 -22 3 -2 13 3
22 12 9 10 24 14 32 11 12 -4 11 -1 -3 17 -11 13 -22 25 -24 28 -2 3 -2 -2 2
-12z"/>
<path d="M1054 1008 c-10 -13 -12 -17 -4 -10 8 6 22 12 33 12 10 0 15 5 12 10
-9 15 -20 12 -41 -12z"/>
<path d="M1490 1260 c0 -5 5 -10 11 -10 5 0 7 5 4 10 -3 6 -8 10 -11 10 -2 0
-4 -4 -4 -10z"/>
<path d="M1428 1213 c-38 -42 -98 -141 -98 -163 0 -34 27 -22 63 28 31 42 87
143 87 157 0 14 -29 2 -52 -22z"/>
<path d="M768 456 c-9 -20 -9 -29 0 -38 15 -15 30 -1 34 31 4 33 -19 38 -34 7z"/>
<path d="M1658 440 c4 -28 22 -44 22 -19 0 5 5 7 10 4 17 -11 11 11 -8 28 -26
23 -29 21 -24 -13z"/>
<path d="M822 437 c-16 -38 -15 -42 5 -26 15 12 16 12 10 -3 -10 -28 9 -21 22
8 10 22 9 26 -3 21 -9 -4 -16 1 -19 11 -3 13 -7 10 -15 -11z"/>
<path d="M1605 423 c8 -35 9 -35 28 -27 20 7 7 38 -19 48 -13 5 -15 2 -9 -21z"/>
<path d="M873 405 c-6 -19 -7 -35 -3 -35 9 0 25 59 18 66 -3 2 -9 -12 -15 -31z"/>
<path d="M1571 433 c-1 -18 19 -67 25 -61 3 3 -2 21 -10 39 -8 19 -15 29 -15
22z"/>
<path d="M902 401 c-15 -43 -15 -46 2 -32 11 10 15 8 18 -6 3 -13 7 -9 15 15
7 18 8 32 2 32 -5 0 -9 -6 -10 -12 -1 -7 -4 -2 -8 12 -7 25 -7 25 -19 -9z"/>
<path d="M1511 380 c11 -31 23 -38 34 -20 3 6 2 10 -4 10 -5 0 -13 9 -16 20
-3 11 -10 20 -15 20 -5 0 -4 -13 1 -30z"/>
<path d="M956 383 c-3 -8 -6 -22 -5 -31 0 -12 2 -13 6 -3 4 11 7 11 14 0 10
-16 16 -11 24 21 5 21 2 26 -14 27 -11 1 -22 -5 -25 -14z"/>
<path d="M1460 371 c0 -24 4 -28 25 -28 23 0 24 0 9 28 -8 16 -19 29 -24 29
-6 0 -10 -13 -10 -29z"/>
<path d="M1017 383 c-11 -11 -8 -51 5 -59 8 -5 9 -2 5 9 -3 10 -3 17 1 17 4 0
8 9 8 20 0 20 -7 25 -19 13z"/>
<path d="M1404 376 c-8 -21 14 -56 31 -50 17 7 20 20 6 28 -5 4 -12 0 -15 -6
-3 -7 -4 -1 -2 15 3 28 -11 38 -20 13z"/>
<path d="M1060 351 c0 -36 27 -37 32 -1 3 19 -1 26 -14 27 -13 1 -18 -5 -18
-26z"/>
<path d="M1354 366 c-7 -18 14 -58 27 -51 5 4 9 14 9 23 0 13 -2 14 -9 4 -7
-11 -9 -11 -14 1 -3 8 0 20 6 26 8 8 8 11 -1 11 -7 0 -15 -6 -18 -14z"/>
<path d="M1116 354 c-11 -28 -7 -40 14 -41 11 -1 20 4 20 12 0 20 -11 45 -20
45 -4 0 -11 -7 -14 -16z"/>
<path d="M1199 333 c4 -31 6 -33 9 -13 2 14 9 31 14 38 8 9 5 12 -9 12 -16 0
-18 -5 -14 -37z"/>
<path d="M1244 340 c1 -24 6 -35 16 -35 10 0 15 11 16 35 1 26 1 28 -3 8 -2
-16 -8 -28 -13 -28 -5 0 -11 12 -13 28 -4 20 -4 18 -3 -8z"/>
<path d="M1294 354 c3 -9 6 -23 6 -32 0 -15 2 -15 10 -2 6 10 10 11 10 3 0 -7
5 -13 10 -13 6 0 10 14 10 30 0 30 -14 41 -23 18 -4 -10 -6 -10 -6 0 -1 6 -6
12 -12 12 -6 0 -8 -7 -5 -16z"/>
<path d="M395 2460 c10 -75 59 -160 137 -236 l72 -69 -65 71 c-72 80 -117 155
-136 229 l-13 50 5 -45z"/>
<path d="M2056 2458 c-10 -62 -61 -150 -135 -231 l-65 -72 72 69 c76 74 126
158 138 234 4 23 4 42 2 42 -3 0 -8 -19 -12 -42z"/>
<path d="M1088 2309 c-15 -8 -16 -13 -5 -29 12 -21 51 -27 62 -10 10 17 -5 50
-23 50 -9 0 -25 -5 -34 -11z"/>
<path d="M1265 2300 c13 -21 7 -92 -9 -108 -15 -15 -18 -15 -26 -2 -5 8 -10
10 -10 4 0 -6 6 -17 13 -23 11 -8 19 -6 36 8 32 28 32 131 0 131 -6 0 -7 -5
-4 -10z"/>
<path d="M1038 2272 c19 -21 27 -20 19 3 -4 8 -13 15 -22 15 -13 0 -12 -3 3
-18z"/>
<path d="M1010 2260 c0 -5 5 -10 10 -10 6 0 10 5 10 10 0 6 -4 10 -10 10 -5 0
-10 -4 -10 -10z"/>
<path d="M1093 2226 c2 -6 16 -12 30 -14 29 -4 33 -12 15 -30 -8 -8 -8 -12 -1
-12 16 0 36 28 30 44 -6 16 -79 28 -74 12z"/>
</g>
</svg>
